<?xml version="1.0" standalone="no"?>
<!DOCTYPE svg PUBLIC "-//W3C//DTD SVG 20010904//EN"
 "http://www.w3.org/TR/2001/REC-SVG-20010904/DTD/svg10.dtd">
<svg version="1.0" xmlns="http://www.w3.org/2000/svg"
 width="483.000000pt" height="161.000000pt" viewBox="0 0 483.000000 161.000000"
 preserveAspectRatio="xMidYMid meet">

<g transform="translate(0.000000,161.000000) scale(0.100000,-0.100000)"
fill="#000000" stroke="none">
<path d="M820 1286 c-127 -29 -253 -119 -317 -227 -42 -72 -55 -119 -16 -59
60 91 161 165 267 195 73 21 208 16 276 -11 156 -62 264 -193 292 -354 l12
-70 94 0 94 0 -6 38 c-22 121 -84 239 -172 327 -145 143 -337 202 -524 161z"/>
<path d="M1741 978 c-5 -18 -20 -73 -32 -123 -36 -150 -49 -185 -65 -185 -33
0 -5 -25 31 -28 41 -4 69 13 46 27 -10 7 -12 21 -7 55 l7 46 54 0 c54 0 54 0
64 -37 14 -48 14 -63 1 -63 -5 0 -10 -7 -10 -15 0 -11 12 -15 45 -15 33 0 45
4 45 15 0 8 -6 15 -14 15 -9 0 -27 52 -56 170 -42 170 -42 170 -70 170 -23 0
-30 -6 -39 -32z m61 -95 c9 -37 14 -71 12 -75 -3 -5 -21 -8 -41 -8 l-35 0 6
38 c12 65 26 112 34 112 5 0 15 -30 24 -67z"/>
<path d="M3360 1003 c0 -4 8 -16 18 -27 10 -12 31 -68 46 -126 55 -213 54
-210 85 -210 28 0 29 2 71 163 24 89 49 167 56 173 26 21 15 34 -31 34 -33 0
-45 -4 -45 -15 0 -8 5 -15 10 -15 17 0 12 -37 -22 -159 -33 -122 -35 -128 -43
-119 -15 14 -74 263 -65 272 23 23 10 36 -35 36 -25 0 -45 -3 -45 -7z"/>
<path d="M3691 966 c-14 -17 -7 -36 14 -36 22 0 29 20 13 36 -13 13 -16 13
-27 0z"/>
<path d="M4061 970 c-17 -10 -7 -40 14 -40 8 0 15 9 15 19 0 24 -12 32 -29 21z"/>
<path d="M817 933 c-14 -4 -16 -11 -11 -39 9 -49 -15 -82 -63 -86 l-38 -3 1
-47 c1 -131 162 -205 268 -124 48 36 66 74 66 139 0 114 -106 190 -223 160z"/>
<path d="M1964 878 c-4 -6 0 -16 9 -23 14 -10 17 -34 17 -153 0 -121 -2 -142
-17 -150 -10 -6 -14 -16 -10 -26 10 -24 90 -19 95 6 2 11 -3 18 -12 18 -12 0
-16 11 -16 45 l0 45 58 0 c32 0 63 5 70 12 8 8 12 49 12 120 0 129 -7 137 -82
95 -57 -32 -58 -32 -58 -8 0 28 -51 43 -66 19z m166 -118 l0 -90 -50 0 -50 0
0 60 0 60 47 30 c26 17 48 30 50 30 2 0 3 -40 3 -90z"/>
<path d="M2238 879 c-15 -8 -18 -25 -18 -112 0 -67 4 -107 12 -115 16 -16 140
-16 156 0 8 8 12 48 12 115 0 102 0 104 -26 113 -33 13 -114 12 -136 -1z m122
-119 l0 -90 -50 0 -50 0 0 90 0 90 50 0 50 0 0 -90z"/>
<path d="M2472 880 c-22 -9 -23 -13 -20 -122 l3 -113 77 -3 c69 -3 78 -1 88
18 6 11 8 25 5 30 -9 15 -32 12 -39 -5 -4 -10 -20 -15 -51 -15 -38 0 -45 3
-45 20 0 14 21 34 70 66 58 37 70 49 70 72 0 15 -4 33 -9 41 -11 18 -116 25
-149 11z m118 -42 c0 -21 -12 -33 -57 -62 l-43 -26 0 50 0 50 50 0 c33 0 50
-4 50 -12z"/>
<path d="M2674 878 c-4 -6 0 -16 9 -23 24 -17 25 -185 2 -185 -8 0 -15 -7 -15
-15 0 -11 12 -15 44 -15 49 0 67 15 41 33 -12 10 -15 25 -13 67 3 51 6 56 43
82 22 15 43 27 48 28 4 0 7 -40 7 -90 0 -53 -4 -90 -10 -90 -5 0 -10 -7 -10
-15 0 -11 12 -15 45 -15 32 0 45 4 45 14 0 8 -7 16 -15 20 -12 4 -15 25 -15
95 0 49 -3 96 -6 105 -9 23 -38 20 -83 -8 -41 -26 -51 -25 -51 6 0 13 -8 18
-29 18 -17 0 -33 -5 -37 -12z"/>
<path d="M2967 883 c-13 -13 -7 -53 8 -53 8 0 15 5 15 10 0 6 20 10 45 10 68
0 61 -27 -22 -81 -54 -35 -69 -50 -71 -72 -6 -49 11 -57 114 -57 86 0 127 12
90 26 -13 5 -16 24 -16 95 0 113 -12 129 -98 129 -32 0 -62 -3 -65 -7z m113
-164 l0 -50 -47 3 c-67 4 -69 28 -6 67 26 17 49 31 51 31 1 0 2 -23 2 -51z"/>
<path d="M3660 880 c-13 -8 -12 -12 8 -25 19 -14 22 -25 22 -90 0 -63 -3 -77
-22 -94 -18 -17 -19 -21 -6 -26 25 -10 91 -1 96 13 2 6 -3 12 -12 12 -13 0
-16 15 -16 94 0 52 -3 101 -6 110 -7 18 -41 21 -64 6z"/>
<path d="M3820 870 c-39 -39 -23 -74 55 -121 41 -25 55 -39 55 -56 0 -20 -5
-23 -41 -23 -32 0 -42 4 -46 20 -9 35 -33 24 -33 -15 l0 -35 68 0 c77 0 92 9
92 57 0 30 -6 37 -57 70 -32 20 -61 41 -65 47 -18 26 -7 36 36 36 35 0 45 -4
49 -20 9 -35 27 -22 27 20 l0 40 -60 0 c-47 0 -64 -4 -80 -20z"/>
<path d="M4030 880 c-13 -9 -13 -12 3 -24 24 -18 26 -186 2 -186 -8 0 -15 -7
-15 -15 0 -11 12 -15 50 -15 36 0 50 4 50 14 0 8 -7 16 -15 19 -11 5 -15 30
-17 109 -3 94 -5 103 -23 106 -11 1 -27 -2 -35 -8z"/>
<path d="M4181 871 c-18 -18 -21 -33 -21 -107 0 -119 4 -124 93 -124 44 0 78
5 85 12 14 14 16 196 3 217 -6 10 -32 16 -74 19 -56 4 -68 1 -86 -17z m127
-108 l-3 -88 -44 -3 c-28 -2 -47 1 -52 10 -10 15 -12 152 -2 161 3 4 28 7 55
7 l49 0 -3 -87z"/>
<path d="M4394 879 c-4 -7 0 -17 9 -24 23 -17 25 -173 2 -181 -8 -4 -15 -12
-15 -20 0 -10 13 -14 45 -14 33 0 45 4 45 15 0 8 -4 15 -10 15 -6 0 -10 27
-10 63 l0 62 44 28 c24 15 46 27 50 27 3 0 6 -38 6 -84 0 -62 -4 -87 -15 -96
-23 -19 -8 -30 41 -30 32 0 44 4 44 15 0 8 -7 15 -15 15 -11 0 -15 20 -17 101
-4 128 -13 138 -87 96 l-50 -27 -3 22 c-3 26 -51 38 -64 17z"/>
</g>
</svg>
